<svg width="24" height="24" viewBox="0 0 24 24" fill="none" xmlns="http://www.w3.org/2000/svg">
<g clip-path="url(#clip0_1498_464)">
<path d="M12.9995 7C13.5299 7 14.0386 7.21071 14.4137 7.58579C14.7888 7.96086 14.9995 8.46957 14.9995 9V21L9.99951 18L4.99951 21V9C4.99951 8.46957 5.21023 7.96086 5.5853 7.58579C5.96037 7.21071 6.46908 7 6.99951 7H12.9995Z" stroke="#212121" stroke-width="1.5" stroke-linecap="round" stroke-linejoin="round"/>
<path d="M9.26514 4C9.44092 3.69553 9.69386 3.44278 9.99846 3.26721C10.3031 3.09165 10.6486 2.99948 11.0001 3H17.0001C17.5306 3 18.0393 3.21072 18.4143 3.58579C18.7894 3.96086 19.0001 4.46957 19.0001 5V17L18.0001 16.4" stroke="#212121" stroke-width="1.5" stroke-linecap="round" stroke-linejoin="round"/>
</g>
<defs>
<clipPath id="clip0_1498_464">
<rect width="24" height="24" fill="white"/>
</clipPath>
</defs>
</svg>
